<svg width="25" height="25" viewBox="0 0 22 22" xmlns="http://www.w3.org/2000/svg">
  <path d="M21.2605 5.96899L16.0105 0.718994H14.95L10.981 4.68799V2.74849L10.231 1.99849H1.2295L0.4795 2.74849V20.7485L1.2295 21.4985H19.2295L19.9795 20.7485V11.7485L19.2295 10.9985H17.29L21.259 7.02949L21.2605 5.96899ZM1.9795 3.49999H9.4795V11H1.9795V3.49999ZM1.9795 12.5H9.4795V20H1.9795V12.5ZM18.4795 20H10.9795V12.5H18.4795V20ZM10.9795 11V8.31049L13.669 11H10.9795ZM15.4795 10.6895L11.29 6.49999L15.4795 2.31049L19.669 6.49999L15.4795 10.6895Z" fill="white"></path>
</svg>
